<?xml version="1.0" encoding="UTF-8"?>
<svg xmlns="http://www.w3.org/2000/svg" id="Layer_1" data-name="Layer 1" viewBox="0 0 24 24">
  <path d="m17.829,10.762c-.141,0-.282-.045-.4-.133-.227-.17-.321-.464-.236-.734l.627-2.011-1.585-1.29c-.213-.181-.291-.476-.194-.738.096-.262.346-.437.626-.437h2.001l.708-1.987c.097-.261.346-.434.625-.434s.528.173.625.434l.708,1.987h2.001c.28,0,.53.175.626.438s.017.558-.197.739l-1.577,1.285.652,1.987c.089.269-.001.565-.226.738-.225.173-.534.185-.771.031l-1.836-1.196-1.805,1.208c-.112.075-.242.113-.371.113Zm-8-3c-.141,0-.282-.045-.4-.133-.227-.17-.321-.464-.236-.734l.627-2.011-1.585-1.29c-.213-.181-.291-.476-.194-.738.096-.262.346-.437.626-.437h2.001l.708-1.987c.097-.261.346-.434.625-.434s.528.173.625.434l.708,1.987h2.001c.28,0,.53.175.626.438s.017.558-.197.739l-1.577,1.285.652,1.987c.089.269-.001.565-.226.738-.225.173-.534.185-.771.031l-1.836-1.196-1.805,1.208c-.112.075-.242.113-.371.113ZM1.829,10.762c-.141,0-.282-.045-.4-.133-.227-.17-.321-.464-.236-.734l.627-2.011L.235,6.595c-.213-.181-.291-.476-.194-.738.096-.262.346-.437.626-.437h2.001l.708-1.987c.097-.261.346-.434.625-.434s.528.173.625.434l.708,1.987h2.001c.28,0,.53.175.626.438s.017.558-.197.739l-1.577,1.285.652,1.987c.089.269-.001.565-.226.738-.225.173-.534.185-.771.031l-1.836-1.196-1.805,1.208c-.112.075-.242.113-.371.113Zm15.17,3.238h-4.183l.58-3.265c.057-.334.029-.519.007-.599-.188-.69-.75-1.136-1.432-1.136-.213,0-.428.044-.64.132-.254.105-.503.367-.682.719l-2.193,4.149h-1.456c-1.657,0-3,1.343-3,3v4c0,1.657,1.343,3,3,3h0v-7c0-.552.448-1,1-1s1,.448,1,1v7h6.379c1.907,0,3.548-1.346,3.922-3.216l.639-3.196c.371-1.856-1.049-3.588-2.942-3.588Z"/>
</svg>
