<svg id="Layer_1" viewBox="0 0 24 24" xmlns="http://www.w3.org/2000/svg" data-name="Layer 1"><path d="m21.14 3.677s-.692-.857-1.713-.857c-1.427 0-2.068.487-2.427 1.5l1 .213v.857l1.995.571c.275.825-.329 3.49.506 5.402-.165-.186-.665-.679-1.501-.922v-1.353c0-1.174-.75-2.211-1.865-2.581l-5.135-1.702-5.135 1.702c-1.115.37-1.865 1.407-1.865 2.581v1.353c-.836.243-1.336.736-1.501.922.835-1.912.231-4.577.506-5.402l1.995-.571v-.857l1-.213c-.359-1.013-1-1.5-2.427-1.5-1.021 0-1.713.857-1.713.857-3.141 3.712-2.853 6.568-2.853 8.281 0 0 1.757 2.509 5.27 2.823 1.317 3.959 4.775 5.406 6.675 6.398 1.933-.864 5.55-1.959 6.815-6.404 3.483-.331 5.226-2.817 5.226-2.817 0-1.713.288-4.569-2.853-8.281zm-9.077 14.199c-1.972-1.07-4.012-2.583-4.063-4.901v-3.684l4-1.326 4 1.326v3.653c-.053 2.676-2.01 4.052-3.937 4.932zm.937-6.056h2v2h-2v2h-2v-2h-2v-2h2v-2h2z"/></svg>