<?xml version="1.0" encoding="UTF-8"?>
<svg xmlns="http://www.w3.org/2000/svg" id="Layer_1" data-name="Layer 1" viewBox="0 0 24 24">
  <path d="m15.72,12.756c.312.312.312.817,0,1.129h0c-.312.312-.817.312-1.129,0l-4.518-4.518c-.312-.312-.312-.817,0-1.129l1.341-1.341c.312-.312.817-.312,1.129,0h0c.312.312.312.817,0,1.129l-.777.777,1.271,1.271.777-.777c.312-.312.817-.312,1.129,0h0c.312.312.312.817,0,1.129l-.777.777,1.553,1.553Zm4.518-4.518c-.312-.312-.817-.312-1.129,0l-.777.777-.989-.989.777-.777c.312-.312.312-.817,0-1.129h0c-.312-.312-.817-.312-1.129,0l-.777.777-1.271-1.271.777-.777c.312-.312.312-.817,0-1.129h0c-.312-.312-.817-.312-1.129,0l-1.341,1.341c-.312.312-.312.817,0,1.129l4.518,4.518c.312.312.817.312,1.129,0l1.341-1.342c.312-.312.312-.817,0-1.129h0Zm3.176-3.177c-.312-.312-.817-.312-1.129,0l-.777.777-.989-.988.777-.777c.312-.312.312-.817,0-1.129h0c-.312-.312-.817-.312-1.129,0l-.777.777-1.271-1.271.777-.777c.312-.312.312-.817,0-1.129h0c-.312-.312-.817-.312-1.129,0l-1.342,1.341c-.312.312-.312.817,0,1.129l4.518,4.518c.312.312.817.312,1.129,0l1.341-1.341c.312-.312.312-.817,0-1.129h0ZM7.109,13.462c-.35.35-.35.92,0,1.271l2.118,2.118c.35.35.92.35,1.271,0s.35-.92,0-1.271l-2.118-2.118c-.35-.35-.92-.35-1.271,0m-1.129-1.129c.973-.973,2.556-.973,3.529,0l2.118,2.118c.973.973.973,2.556,0,3.529s-2.556.973-3.529,0l-2.118-2.118c-.973-.973-.973-2.556,0-3.529h0Zm-3.035,3.035c-.312.312-.312.818,0,1.129l2.303,2.303-3.551-1.371c-.357-.138-.762-.052-1.033.219h0c-.378.378-.378.991,0,1.368l4.398,4.398c.312.312.818.312,1.129,0h0c.312-.312.312-.818,0-1.129l-2.297-2.297,3.545,1.365c.357.137.761.052,1.032-.219h0c.378-.378.378-.991,0-1.369l-4.398-4.398c-.312-.312-.818-.312-1.129,0h0Zm-2.524-.272L15.095.419c-2.359-.631-4.972-.636-7.744.587-2.818,1.244-5.106,3.532-6.348,6.352C-.217,10.128-.211,12.738.419,15.095Zm23.161-6.191c.63,2.355.636,4.963-.58,7.73-1.239,2.818-3.523,5.106-6.338,6.353-2.778,1.23-5.395,1.226-7.758.594l14.676-14.676Z"/>
</svg>
